P1
# CREATOR: GIMP PNM Filter Version 1.1
256 64
0001000000010000000000000001000000000000000100000001000000101000001010
0000000000001010000000000000101000000000000010100000010000001010000000
0000000000000010100000100000000000000000000000101000000100000001000000
0000001111111100000000111100000000111111111111000100000001000000000000
0001000000000000000100000001000000101000001010000000000000101000000000
0000101000000000000010100000010000001010000000000000000000001010000010
0000000000000000000000101000000100000001000000000000111111110000000011
1100000000111111111111000100000001000000000000000100000000000000010000
0001111100101000001011110011111111101111111111110010111111111111111011
1111111111001010001111111100000000001010000011111100111111000000000010
1000111111110001000000000000111111110000000011110000000011111111111100
0111111111111111111111000111111111111111111111000100000010111100100000
0010000000000000000000000010000000000000000000000000000011111111000000
0011111111111111110010000000100000001111111111111100010000111100000001
1111111111110000000011110000000011111111111100000000000000000001000000
0100000000000000010000000111110010100000111111001011111111111111101111
0010111111111111111011111111111100000000111111110010100000000000001111
1100111111001010000010100011111111000000000001000011111111111111111111
0000000011110000000000000000000000000001000000010000000000000001000000
0100000010100000000000001010000000000000101000001010000000000000101000
0000000000000000001000000010100000000000000000000010000000101000001010
0000010000000000000001000011111111111111111111000000001111000000000000
0000000000000001000000010000000000000001000000010000001010000000000000
1010000000000000101000001010000000000000101000000000000000000000100000
0010100000000000000000000010000000101000001010000001000000000000000100
0011111111111111111111000000001111000000000000000000000000000100000001
0000000000000001000000010000001010000000000000101000000000000010100000
1010000000000000101000000000000000000000100000001010000000000000000000
0010000000101000001010000001000000000000000100001111111111111111111100
0000001111000000000000000000000000000000000000000000000000000000000000
0000000000000000000000000000000000000000000000000000000000000000000000
0000000000000000000000000000000000000000000000000000000000000000000000
0000000000000000000000000000000000000000000000000000000000000000000000
0000010000001001000010010000001000011000100001000000001000000001000010
0000000000000000000000000000000000000000000000000000001111000001100000
1111000011110000001000011111100011110001111110001111000011110000000000
0000000000000000000000000000000000111100000000000001000000100100011111
1000111110011001000010100000010000000010000001000000010100000010000000
0000000000000000000000000010010001100010100001000010010000100001100001
0000000100000000000010010000100100001000000000000100000000010000000000
0001000001000010000000000001000000000000001001000010100000001000000100
0000000000000010000001000000001000000010000000000000000000000000000000
0100010010100000100000000010000011000010100001111100011111000000010000
1111000100001000010000000000000000100000111110000010000000010000000000
0001000000000000001001000011111000010000001010100000000000001000000100
0000111110001111100000000000111110000000000000100001010010000010000011
1100000000100100100000000010010000100000100001000010001111100000000000
0000000001000000000000000001000000100000000000000000000000000001111110
0000101000100110010001000000000000001000000100000000100000001000000010
0000000000000110000001000001100010000010000100000001000010011111100100
0010010000100001000001000010000000100000000000010000000010000011111000
0010000000000000000000000100000000000000100100001111100100011000111010
0000000000000100001000000001010000001000000010000000000000011000001000
0000111100001111100111111000111100000010000011110000111100000100000011
1100001111000001000000010000000001000000000000010000000010000000000000
0000000000000000000000000010000000000000000000000000000000000000000000
0000000000000000000100000000000000000000000000000000000000000000000000
0000000000000000000000000000000000000000000000000000000000000000000010
0000000000000000000000000000000000000000000000000000000000000000000000
0000000000000000000000000000000000000000000000000000000000000000000000
0000000000000000000000000000000000000000000000000000000000000000000000
0000000000000000000000000000000000000000000000000000000000000000000000
0000000000000011110000111100011111000011110001111000011111100111111000
1111000100001000111110000000100100010001000000010000100100001000111100
0111110000111100011111000011110011111110010000100100001001000010010000
1010000010011111100000111000000000011100000001000000000000010010100100
0010010000100100001001000100010000000100000001000010010000100000100000
0000100100100001000000011001100110001001000010010000100100001001000010
0100000000010000010000100100001001000010001001000100010000000100000010
0001000000000100000010100000000000010101100100001001111100010000000100
0010011111000111110001000000011111100000100000000010011100000100000001
0110100101001001000010010000100100001001000010001111000001000001000010
0100001001000010000110000010100000001000000010000010000000010000010001
0000000000010111100111111001000010010000000100001001000000010000000100
1110010000100000100001000010010010000100000001000010010010100100001001
1111000101001001111100000000100001000001000010010000100100001000011000
0001000000010000000010000001000000010000000000000000000001000000010000
1001000010010000100100010001000000010000000100001001000010000010000100
0010010001000100000001000010010001100100001001000000010010100100010001
0000100001000001000010001001000101101000100100000100000010000000001000
0000100000010000000000000000000000111100010000100111110000111100011110
0001111110010000000011110001000010001111100011110001000010011111100100
0010010000100011110001000000001111000100001000111100000100000011110000
0110000010010001000010000100000111111000001110000001000111000000000000
0000000000000000000000000000000000000000000000000000000000000000000000
0000000000000000000000000000000000000000000000000000000000000000000000
0000000000000000000000000000000000000000000000000000000000000000000000
0000000000000000000000000000000000000000000000111111110001000000000000
0000000000000000000000000000000000000000000000000000000000000000000000
0000000000000000000000000000000000000000000000000000000000000000000000
0000000000000000000000000000000000000000000000000000000000000000000000
0010000000000000000000000000000000100000000000001000000000000000000100
0000000000001100000000000100000000010000000001000010000000010000000000
0000000000000000000000000000000000000000000000000000010000000000000000
0000000000000000000000000000000000000000111000001000011100000001010000
0000000000000000111000001000000001110000000100001110000001000000111100
0100000000000000000000000010100000010000011010000111100000111000011110
0000111100000111000011100000111000010001000100010001000100010001000100
0100011111000000100000001000000100000010100000010000000000000000010000
1111000010000000111100010001000001100001000100011110000011000000000100
0011000000010000010101000100010001000100010001000100010000100000010000
0000010000010001000100010001010100001010000100010000001000001100000000
1000000011000000000000101000000000000011110000100010001000000100010001
1110000001000001000100010001000001000000000100001100000001000001010100
0100010001000100010001000100010000100000001110000001000001000100001010
0001010100000100000100010000010000000010000000100000010000000000000100
0100000000000100010000100010001000000100010001000000000100000011110001
0001000001000000000100001010000001000001010100010001000100010001111000
0011110000100000000001000001000001000100001010000101010000101000001111
0000100000000010000000100000010000000000000100010000000000001111000011
1100000111000011110000111100000100000000010001000100001110000010010000
1001000000110001010100010001000011100001000000000001000010000001111000
0000110000111000000100000010100001000100000001000111110000001110000010
0001110000000000000111110000000000000000000000000000000000000000000000
0000000000000011100000000000000000000001100000000000000000000000000000
0000000000000001000000000001100000000000000000000000000000000000000000
0000000000000000001110000000000000000000000010000000000000000000000000
0000000000000000000000000000001100000000000000000000000000000100000001
0000000000000010100000000000000000000000000000101000000010000000000000
0010000000100000100100001001000000000000000000000000000001010011101001
0010100000000000000000000000000000101000001010000011111001111110000000
0000010000000000000000000000010000000100000010100011000100000100000000
0000011011100100000000010000000101001101000000010000000010000100100000
1001000000000000000000000000000010100001001111000100000000000000000000
0001000000010000100000100100000000100010000000000010000000000000000000
0000010000011111000000000011001000001111000000010010010000010010000111
1110000101001011100000010000000100000100100001001000000110000000000000
0000000000000001001111001110000001000001101100000101000111110001000100
1111110000010000000000000111100000000000000000000111110000010000000000
0000010000010000000000100010011100010100000000010000100010101100100000
0000000000000000000000000000001111000000000000000000000000000100100101
0000000000100010010010000110000000100000101000010000000001000000000000
0010000000000000000000000001000000010000000000000010000000111100000100
0010010000011000000001100000100010110101000000000000000000000000000000
0000001111000111111011111111000000000000000000111000000001001001110000
1100000001000000010000111111000010001000010000001000000010010000000000
0001000001111100000000000101101100000010000010001001000011000000001000
0001000001100100100000000000000000000000000000000000011000000000000000
0000000000000000000000000100000010001001000001010000001000000001000001
0000000111111000010000001000000010010001010100000100000001000000000000
1001101101111100000001000110111001111110011111100111111110001100000000
0000000000000000000000000000000000000000000000000000000000000000000111
1000000100000110111000001100011111000001000000111110000000000010000011
0000000100100000000000000100000001000000000000000000000000000000000000
0000000000000000000000000000000000000000000000000000000000000000000000
0000000000000000000000000000000000000000000000000000000000000000000000
0000000000000000000000000000000000000000000000000000000000000000000000
0010000001110000100100001111000110000000000000000000000000000000111100
0011110000011000000000000011000000110000000010000000000000000000000000
0000000000000100000001000000000000001000000010000011000000000000000000
0000000010000000100000011100010110101000001000001000001000000000000001
0000100001000000000000000000000000000001000010000000000010010000001000
0000100000001000000100000000000001111110000000000000000000110000001010
0000000000011000100110001000100010000100000000000000000000000111000010
0010001001000100010000001000000111000000000010011001011100000001001000
0000000000000010111001000000000010010000001000000100000001000000000000
0100010011100100000000000000000000010000001010000100100000100100001001
0001000100000000000000000000001000001010000111100001000010001010000000
0000001000100000000010100001100100000010010001111110001111001010010100
0000000001100000111110001000000000100000000000010001001110010000000000
0000000000010000001010000010010000101010001011100010101000010000000000
0000001000001010000010000001000010000100000000100000011100000000001010
0001011010000100100000000010000000001011100100000000000000000000100000
1110000011000000000000010001000110010000010000000000000011100000010000
0001001000010110000100011101011000100000000000000000100000101010001000
0000100100011111000000100000000010000000001001100100000000001001000000
0010000000001010010100000000000000000000100000000000000000000000000001
0001000010010000000000000100000000000000000000001001000010101000100010
0010101001000010000000000000100000011100011111100101101000010000000010
0000111100000000000100001000000000000100100000001000000000010000100000
0000000000000011111000000000000000000000000010111010001001000000000000
0010000000000000000000010010000100111101000100010011110011110000000000
0000000000001000000000000000000000010000000000000000000000000000001111
0000000000000000000000000000000000001111000000000000000000000000000000
0000000000000000000010000000000000000000000000110000000000000000000000
0000000000001000000111000000100000000000010000000010000000100000010100
0010010000011000000000000000000000010000000010000001000000100100000100
0000000100000010000001010000000000000101000001000000001000000100000001
0100001001000000000000000000000100000000100000001000001001000000100000
0000000011100000001000000100000001010000101000000000000010010001101110
0011110000001000000100000010100000000000000010000000100000010100000000
0001111000001010000000100000010000001010000010100000000000000000000011
1010010010100101001000010100000000001001001000000000010001000011110000
1111000000000000000000001111000011110010010000010000000111111001111110
0111111001111110001111100011111000111110001111100100010001000010001111
0000111100001111000011110000111100001000100100010001000010010000100000
0000010000100100010001000000010001000100001001000010001111000011110001
0000100100001010011100010000000100000001000000010000000100000000001000
0000100000001000000010001111001001100010010000100100001001000010010000
1001000010000101000100101001000010010000100100001001000010001010000111
1000010110000111111001111110010000100100001001111110011111101111000001
0000100111110001111100011111000111110000001000000010000000100000001000
0100001001011010010000100100001001000010010000100100001000001000010100
1001000010010000100100001001000010000100000100010001000100010000100100
0010011111100111111001000010010000101001000000111100010000000100000001
0000000100000000001000000010000000100000001000010001000100011001000010
0100001001000010010000100100001000010100001000100100001001000010010000
1001000010000100000111100001000100010000100100001001000010010000100100
0010010000101001111000001000011111100111111001111110011111100011111000
1111100011111000111110011110000100001000111100001111000011110000111100
0011110000100010010111000011110000111100001111000011110000010000010000
0001011000000000000000000000000000000000000000000000000000000000000011
0000000000000000000000000000000000000000000000000000000000000000000000
0000000000000000000000000000000000000000000000000000000000000000000000
0000000000000000000000000000000000000000000000000000000000100000000010
0000001000001010000010100000011000000000000000000000100000000010000001
0000001010000010000000001000000100000010100000011010000101000010000000
0010000001000000101000001010000000000000000000001000000000100000010000
0100010000001000000000000010100000010000000100000001010001010000000000
0000100100000000000000000000010000000100000010100000000000000100000001
0000001010000000000000001100001010000001000000010000001010000101000000
0000000000000000000000000100000001000000101000000000000001000001000000
0000000000111000001110000011100000111000001110000011100001101100000111
0000111000001110000011100000111000000000000000000000000000000000000001
0100000000000011100000111000000000000000000000111000000010000011010001
0001000100010000000000010001000100010001111100010001000000010000000100
0000010000000100000001000000010000010010001000000100010001000100010001
0001000100001100000011000000110000001100000011110001111000010001000100
0100001110000011100001000100000000000100100001000100010001000100010001
0001000100010001000010010001000011110000111100001111000011110000111100
0011110001111100001000000111100001111000011110000111100000010000000100
0000010000000100000100010001000100010001000100010001000100010001000100
0100001111100101010001000100010001000100010001000100010001000100001001
0001000100010001000100010001000100010001000100010001001001000000011100
0100000001000000010000000100000000010000000100000001000000010000010001
0001000100010001000100010001000100010001000100010000000000001001000100
0100010001000100010001000100001111000111110000111100001111000011110000
1111000011110000111100001111000110111000001000001111000011110000111100
0011110000111000001110000011100000111000001110000100010000111000001110
0000111000001110000011100000001000010110000011100000111000001110000011
1000000001000100000000000100000000000000000000000000000000000000000000
0000000000000000110000000000000000000000000000000000000000000000000000
0000000000000000000000000000000000000000000000000000000000000000000000
0000000000000000000000000000000000000000000000000000111000000000000011
1000