P1
128 128
0110011001100110101010100001000000010000000000000010100000101000001010
0000010000000000000000000000101000000000000000000000101000
0011001111001100010101010001000000010000000000000010100000101000001010
0000010000000000000000000000101000000000000000000000101000
1001100110011001101010101111000000011111000000000010100000101000001010
0011111111111111111111111100101000001111111111100000101111
1100110000110011010101010001000000010000111111111111111100101111111010
0000000000000000000000000000101000001000000000100000100000
0110011001100110101010101111000000011111001010000000000000101000001010
0011111111111111111111111100101000001011111110100000111111
0011001111001100010101010001000000010000001010000000000000101000001010
0000000000000100000000000000101000001010000010100000000000
1001100110011001101010100001000000010000001010000000000000101000001010
0000000000000100000000000000101000001010000010100000000000
1100110000110011010101010001000000010000001010000000000000101000001010
0000000000000100000000000000101000001010000010100000000000
0010100000101000001010000000000000101000001010000000000000000000000000
0000010000000100000001000000010000000000000001000000010000
0010100000101000001010000000000000101000001010000000000000000000000000
0000010000000100000001000000010000000000000001000000010000
1110100000101111111010001111111111101111111011110000000000000000000000
0000010000000100000001000000010000000000000001000000010000
0000100000100000000010000000000000000000000000001111111100011111111100
0000011111111100000001111111110000111111111111111111111111
1111100000101111111010001110111111111111111011110000000000010000000100
0000000000000000000001000000010000000100000000000000010000
0000000000101000001010000010100000000000001010000000000000010000000100
0000000000000000000001000000010000000100000000000000010000
0000000000101000001010000010100000000000001010000000000000010000000100
0000000000000000000001000000010000000100000000000000010000
0000000000101000001010000010100000000000001010000000000000010000000100
0000000000000000000001000000010000000100000000000000010000
0000000000110000000000000010100000010000110001000111000000000000000010
0000100000000100000000000000000000000000000000000000001000
0000000000110000001010000010100001111100101010000100100000010000000100
0000010000010101000001000000000000000000000000000000001000
0000000000110000001010000111110001010000011100000010000000010000001000
0000001000001010000001000000000000000000000000000000010000
0000000000110000000000000010100000111000000111000011000000000000001000
0000001000110101100111110000000000001111000000000000010000
0000000000010000000000000111110000010100001010100100110000000000001000
0000001000001010000001000000000000000000000000000000010000
0000000000000000000000000010100001111100010001100100100000000000000100
0000010000010101000001000000010000000000000001100000100000
0000000000010000000000000010100000010000000000000111010000000000000010
0000100000000100000000000000110000000000000001100000100000
0000000000000000000000000000000000000000000000000000000000000000000000
0000000000000000000000000000000000000000000000000000000000
0111110000001000001111000111100000100100011111000111100001111100011111
0001111000000000000000000000000110000000000110000000111100
0100110000011000010001000100010001000100010000000100000001000100010001
0001000100000110000011000000001100000000000011000001001100
0101010000101000000001000000010001000100010000000100000000000100010001
0001000100000000000000000000011000001111000001100000001100
0110010000001000001111000001100001111100011110000111100000000100001110
0001111100000000000001000000110000000000000000110000011000
0100010000001000010000000000010000000100000001000100010000001000010001
0000000100000110000011000000011000001111000001100000010000
0100010000001000010000000000010000000100000001000100010000010000010001
0000000100000000000110000000001100000000000011000000000000
0111110000111100011111000111110000000100011111000111110000100000011111
0001111100000000000000000000000110000000000110000000010000
0000000000000000000000000000000000000000000000000000000000000000000000
0000000000000000000000000000000000000000000000000000000000
0011100001100000011100000111100001110000011110000011110000111000010001
0000111000000111000100000001000000011110000100010001111000
0100010001110000010010000100000001001000010000000010000001000000010001
0000010000000010000100100001000000010101000110010001000100
0100110001011000010001000100000001000100010000000010000001000000010001
0000010000000010000101000001000000010101000111010001000100
0101010001001100011110000100000001000100011100000111100001000000011111
0000010000000010000110000001000000010001000101110001000100
0101100001111100010001000100000001000100010000000010000001001100010001
0000010000000010000111000001000000010001000100110001000100
0100010001000100010001000100000001001000010000000010000001000100010001
0000010000010010000101100001000000010001000100010001000100
0011100001000100011110000111110001110000011111000010000001111100010001
0000111000001110000100110001111100010001000100010000111100
0000000000000000000000000000000000000000000000000000000000000000000000
0000000000000000000000000000000000000000000000000000000000
0111000001111000011100000111100001111100010001000100010001000100010001
0001000100011111000011100001000000001110000001000000000000
0100100001000100010010000100010000010000010001000100010001000100011011
0001000100000001000010000001000000000010000010100000000000
0100010001000100010001000100000000010000010001000100110001000100001110
0001101100000011000010000000100000000010000100010000000000
0111110001000100011111000011100000010000010001000101100001000100000100
0000111000000110000010000000010000000010000000000000000000
0100000001011100010100000000010000010000010001000111000001010100001110
0000010000001100000010000000001000000010000000000000000000
0100000001001100010010000100010000010000010011000110000001010100011011
0000010000011000000010000000000100000010000000000000000000
0100000000110100010001000011110000010000011110000100000001111100010001
0000010000011111000011100000000100001110000000000000000000
0000000000000000000000000000000000000000000000000000000000000000000000
0000000000000000000000000000000000000000000000000011111111
0010000000000000000000000000000000000000000000000000000000000000000000
0000000000000000000000000000000000000000000000000000000000
0001000000000000011000000000000000001100000000000011100000000000011000
0000010000000100000100000001100000000000000000000000000000
0000100000000000011000000000000000001100000000000110000000000000011000
0000000000000000000100000001100000000000000000000000000000
0000000001111100011111000111100001111100001111000110000001111100011111
0000010000000100001101000001100000111110000111100001111000
0000000000011100011001000110000001001100011001001111100001001100011001
0000110000000110001110000001100000110101000110010001100100
0000000001101100011001000110000001001100011110000110000001111100011001
0000110000000110001101000001100000110001000110010001100100
0000000000111100011110000111100000111100001111000110000000001100011001
0000110000010110001100100001110000110001000110010000111100
0000000000000000000000000000000000000000000000000000000001111000000000
0000000000001110000000000000000000000000000000000000000000
0000000000000000000000000000000000000000000000000000000000000000000000
0000000000000000000000100000010000001000000000000011101110
0000000000000000000000000000000000000000000000000000000000000000000000
0000000000000000000001000000010000000100000011001010101010
0000000000000000011000000011110001100000000000000000000000000000011011
0001100100011111000001000000010000000100000100110010101010
0111100000111100011011000110000001111100010011000110010011000100001110
0001100100000110000010000000010000000010000000000010101010
0110010001001100011100000111110001100000010011000110010011000100000100
0001100100001100000001000000010000000100000000000011101110
0111110000111100011000000000110001100000010011000110100011010100001110
0001111100011000000001000000010000000100000000000000000000
0110000000001100011000000111110000111000001111000011000011111100011011
0000011000011111000000100000010000001000000000000000000000
0110000000001110000000000000000000000000000000000000000000000000000000
0000110000000000000000000000010000000000000000000000000000
0011110011111111000000000000110000000000000000000001000000010000000100
0001000000000100000000000011111111000000001111000000001111
0100010011111111000000000001000000000000000000000011100000111000001010
0010100000001110000000010011111111000000001111000000001111
1111000011111111000000000001000000000000000000000001000000010000000000
0001011100010010000000100011111111000000001111000000001111
0100000011111111000100000011100000101000000000000001000000010000000000
0011100000101100000001000011111111000000001111000000001111
1111000011111111000100000001000000101000000000000001000000111000000000
0000100100001111110000100000000000111111111111000000001111
0100000011111111000000000001000000000000000000000001000000010000000000
0001011010010100010000010000000000111111111111000000001111
0111110011111111000000000110000000000000010101000000000000000000000000
0000100100000100010000000000000000111111111111000000001111
0000000011111111000000000000000000000000000000000000000000000000000000
0000000000000111110000000000000000111111111111000000001111
0000000000001000000100000010100000101000000000000000000000000000001010
0011100000010000000000000000000000000000000000000011101100
0000000000001000000100000010100000101000000000000000000000000000010100
0001011110111111100100000000000000000100000111100001001010
0000000000000100001000000001010001010000000000000000000000000000000000
0001010101011000000010000001111100011111100000000001001110
0000000000000000000000000000000000000000000110000111110011111110000000
0000000000011111100001000000000100000100101111110001001100
0000000000000000000000000000000000000000000110000000000000000000000000
0000000000011010100010000000000100000100100000010001001010
0000000000000000000000000000000000000000000000000000000000000000000000
0000000000101001000100000000001000001000100000010000000000
0000000000000000000000000000000000000000000000000000000000000000000000
0000000000001011000000000000001000001000100000100000000000
0000000000000000000000000000000000000000000000000000000000000000000000
0000000000010100100000000011111110010001100111000000000000
1110000000010000000100000011100000100000010001000001000000111000001010
0011111100001110000000000000000000000000001111110000111000
1000000000000000011110000010010000011010010001000001000001000100000000
0010000010000001000011011000000000000000001011001000000000
1000000000010000010000000010000000100100001010000001000001110000000000
0010111010000111000110110000000000000000001010101000000000
1110000000011000010000000111000000100100011111000000000000101000000000
0010100010001001001101100001111100000000001011001000000000
0000000000011000011110000010000001011000000100000001000000011000000000
0010111010000111000110110000000100000000001010101000000000
0000000000011000000100000010010000000100001110000001000001000100000000
0010000010000000000011011000000000000000001000001000000000
0000000000011000000000000111110000000000000100000001000000111000000000
0001111110000000000000000000000000000000000111111000000000
0000000000000000000000000000000000000000000000000000000000000000000000
0000000000000000000000000000000000000000000000000000000000
1100000000000000011000000110000000001000000000000011111000000000000000
0000100000000110000000000001000100010001001100010000010000
1010000000010000000100000001000000010000000000000100101000000000000000
0001100000001001001101100011001000110010000010100000000000
0110000000010000001100000110000000000000011001000100101000000000000000
0000100000001001000110110001010010010100000111001000010000
0000000001111100010000000001000000000000011001000111101000010000000000
0001110000001001000011011011111010111111000011101000110000
0000000000010000011100000111000000000000011011000000101000000000000000
0000000000000110000110110000011110000100101101111001100000
0000000000010000000000000000000000000000011101000000101000000000000010
0000000000000000001101100000100010001011000010001001100100
0000000001111100000000000000000000000000010000000000101000000000000110
0000000000000000000000000001000010010011100100001001111000
0000000000000000000000000000000000000000010000000000000000000000000000
0000000000000000000000000000000000000000000000000000000000
0010000000001000000100000010100000101000000100000001111000111100001000
0000001000000100000010100000100000000010000001000000101000
0001000000010000001010000101000000000000001010000010100001000000000100
0000010000001010000000000000010000000100000010100000000000
0000000000000000000000000000000000000000000100000010100001000000000000
0000000000000000000000000000000000000000000000000000000000
0111000001110000011100000111000001110000011100000100110001000000011111
0001111100011111000111110000111000001110000011100000111000
0100100001001000010010000100100001001000010010000111100001000000010000
0001000000010000000100000000010000000100000001000000010000
0111110001111100011111000111110001111100011111001000100000111100011100
0001110000011100000111000000010000000100000001000000010000
0100010001000100010001000100010001000100010001001000111000001000010000
0001000000010000000100000000010000000100000001000000010000
0100010001000100010001000100010001000100010001000000000000111000011111
0001111100011111000111110000111000001110000011100000111000
0111100000010100001000000000100000010000001010000010100000000000000000
1000100000000010000001000000101000000010000110000000111000
0100010000101000000100000001000000101000010100000000000000000000001111
0000010000000100000010100000000000000100000100000000100100
0100010001000100011110000111100001111000011110000111100000101000010011
0000000000000000000000000000000000010001000111100000101000
1110010001100100010001000100010001000100010001000100010000010000010101
0001001100010011000100110001001100010001000100010000100100
0100010001010100010001000100010001000100010001000100010000101000011001
0001001100010011000100110001001100001010000111100000100100
0100010001001100010001000100010001000100010001000100010000000000011110
0001001100010011000100110001001100000100000100000000100100
0111100001000100001111000011110000111100001111000011110000000000100000
0000111100001111000011110000111100000100000110000001011000
0000000000000000000000000000000000000000000000000000000000000000000000
0000000000000000000000000000000000000000000000000000000000
0010000000001000000100000010100000101000000100000000000000000000001000
0000001000000100000010100000100000000010000001000000101000
0001000000010000001010000101000000000000001010000000000000000000000100
0000010000001010000000000000010000000100000010100000000000
0000000000000000000000000000000000000000000100000110110000111000000000
0000000000000000000000000000000000000000000000000000000000
0111110001111100011111000111110001111100011111000001001001000000001111
0000111100001111000011110000010000000100000001000000010000
0001110000011100000111000001110000011100000111000111110001000000011001
0001100100011001000110010000110000001100000011000000110000
0110110001101100011011000110110001101100011011001001000000111000011110
0001111000011110000111100000110000001100000011000000110000
0011110000111100001111000011110000111100001111000110110000010000001111
0000111100001111000011110000110000001100000011000000110000
0000000000000000000000000000000000000000000000000000000000110000000000
0000000000000000000000000000000000000000000000000000000000
0001010000010100001000000000100000010000001010000010100000000000000000
0000100000000010000001000000101000000010000100000000101000
0000100000101000000100000001000000101000010100000000000000010000000000
0000010000000100000010100000000000000100000100000000000000
0001010000000000000000000000000000000000000000000000000000000000001111
0000000000000000000000000000000000011001000111000001100100
0011110001111000011110000111100001111000011110000111100000111000010011
0001001100010011000100110001001100011001000100100001100100
0100010001100100011001000110010001100100011001000110010000000000010101
0001001100010011000100110001001100011001000111000001100100
0100010001100100011001000110010001100100011001000110010000010000011001
0001001100010011000100110001001100011111000100000001111100
0011100001100100001111000011110000111100001111000011110000000000011110
0000111100001111000011110000111100000110000110000000011000
0000000000000000000000000000000000000000000000000000000000000000000000
0000000000000000000000000000000000001100000000000000110000
